<svg viewBox="0 0 1313.51 1313.51" xmlns="http://www.w3.org/2000/svg"><defs><clipPath id="clip-path" transform="translate(-7.42 -6.44)"><path fill="none" d="M0 0h1326.47v1326.47H0z"/></clipPath><style>.cls-9{fill:none;stroke-width:30px}.cls-4{fill:#0668b3}.cls-7{fill:#2da343}.cls-7,.cls-9{stroke:#2da343}</style></defs><g clip-path="url(#clip-path)"><circle cx="656.76" cy="656.76" r="641.76" stroke-width="30" fill="#fff" stroke="#0668b3"/><path class="cls-4" d="M877.31 527.08c0 39.48-26.84 71.5-59.94 71.5-21.79 0-40.85-13.87-51.35-34.59-10.5 20.72-29.56 34.59-51.35 34.59s-41-14-51.51-34.94c-10.46 20.92-29.61 34.94-51.51 34.94S570.8 584.71 560.3 564c-10.5 20.72-29.56 34.59-51.35 34.59-33.06 0-59.87-31.94-59.94-71.37.09 118.21 95.94 214 214.17 214s214.16-95.87 214.16-214.15z" transform="translate(-7.42 -6.44)"/><path d="M509 598.58c21.79 0 40.85-13.87 51.35-34.59 10.5 20.72 29.56 34.59 51.35 34.59s41.05-14 51.51-34.94c10.46 20.92 29.61 34.94 51.51 34.94S755.52 584.71 766 564c10.5 20.72 29.56 34.59 51.35 34.59 33.1 0 59.94-32 59.94-71.5H449v.17c.08 39.38 26.89 71.32 60 71.32z" transform="translate(-7.42 -6.44)" fill="#2da343"/><path d="M663.18 312.89C544.9 312.89 449 408.78 449 527.06h214.17a58.25 58.25 0 1158.26-58.25 58.24 58.24 0 01-58.26 58.25h214.17c0-118.28-95.88-214.17-214.16-214.17z" transform="translate(-7.42 -6.44)" fill="#0095d6"/><path class="cls-7" d="M1024 927.82a340.67 340.67 0 00-370.62 30.69A340.67 340.67 0 001024 927.82z" transform="translate(-7.42 -6.44)"/><path class="cls-7" d="M673 958.51a340.69 340.69 0 00-370.63-30.69A340.69 340.69 0 00673 958.51z" transform="translate(-7.42 -6.44)"/><path stroke-width="27" stroke="#2da343" fill="none" d="M655.76 750.45v263.17"/><path class="cls-9" d="M1004.06 644.31C846.71 666 720.51 782.1 687.76 931.93c159.44-17.55 287.63-135.61 316.3-287.62zM322.3 644.31c28.67 152 156.86 270.07 316.29 287.62C605.84 782.1 479.65 666 322.3 644.31z" transform="translate(-7.42 -6.44)"/><path class="cls-4" d="M331.46 236.41q10.38 11.67 9.71 23.1t-12.33 21.82q-11.61 10.34-23.07 9.69t-21.84-12.3l-30.62-34.41 5.88-5.24 5.88-5.23 33.19 37.28q5.25 5.91 11 6.25t11.74-4.91q5.9-5.25 6.23-11t-4.92-11.67l-33.19-37.29 5.88-5.24 5.88-5.23zM374.12 243.16l-6 3.9-6 3.91-41.49-64.12 9.21-6 9.22-6 54.54 33.35-31.31-48.38 6-3.91 6-3.9 41.5 64.12-9.08 5.87-9.09 6-55.19-33.76zM394 142.2l7-3.56 7-3.55 34.47 68.15-7 3.55-7 3.56zM448.64 130L427 138.41l-2.16-5.54-2.15-5.53 58-22.59 2.16 5.53 2.15 5.53-21.66 8.44 23.41 60.1-7.34 2.86-7.34 2.86zM517.15 173.62l-18.34-74.14 48.9-12.1 1.42 5.77 1.43 5.76-33.56 8.32 4.53 18.32 31.47-7.81 1.43 5.77 1.42 5.76-31.55 7.81 5.26 21.23 34.58-8.56 1.43 5.77 1.42 5.76zM568.79 83.32l7.82-.82 22.33-2.34q16.95-1.77 27.52 7.31t12.44 26.93q2 18.6-7.8 29.41t-30.52 13l-16 1.68-7.82.82zm22.38 62.51l10.83-1.14q11.9-1.24 17.35-8.56t4.14-20.13q-1.32-12.58-8.43-18.72t-18.89-4.91l-10.48 1.1zM734.79 102.94a10.77 10.77 0 00-2.52-8.43q-2.92-3.24-8.61-3.86a13.84 13.84 0 00-9.13 1.79 8.49 8.49 0 00-4.27 6.56 7.07 7.07 0 002.59 6.21c2 1.78 5.7 3.83 11.18 6.18l9.41 4q9.4 4 12.94 9t2.67 12.84a21 21 0 01-10.34 16.24q-9.18 5.76-22.42 4.29-15.28-1.68-22.1-8.93-6.63-7.06-5.26-19.53l.08-.7 15.41 1.69q-1.06 6.64 2.43 10.75c2.32 2.75 5.9 4.38 10.74 4.92a17.76 17.76 0 0010.87-1.85 9.05 9.05 0 005-7.11 6 6 0 00-2-5.23q-2.37-2.2-9-5.06l-9.41-4q-11-4.75-15.19-9.85t-3.34-12.74a22.35 22.35 0 019.7-16.62q8.52-6 20.72-4.61 13.71 1.51 20.36 8.34 6.16 6.28 5.11 15.8l-.23 1.66zM788.48 103.1l-22.58-5.54 1.42-5.77 1.41-5.79 60.46 14.83-1.41 5.77-1.42 5.77-22.58-5.54-15.36 62.64-7.65-1.88-7.65-1.87zM860.75 112.24l9.35 3.64 9.4 3.66-1.23 81.46-7.9-3.07-7.89-3.07.8-17.13L833.09 166l-10.88 13.2-7.79-3-7.84-3zm-19.62 44.14l22.72 8.84 1.66-38.1zM925.41 154.15L905 143l2.86-5.21 2.85-5.2 54.59 29.91-2.85 5.2-2.85 5.21-20.39-11.17-31 56.57-6.9-3.79-6.91-3.78zM929.27 230.33l43.94-62.47 41.2 29-3.41 4.84-3.41 4.86-28.32-19.93-10.87 15.44 26.6 18.7-3.42 4.86-3.41 4.85-26.58-18.69L949 229.68l29.14 20.49-3.44 4.83-3.41 4.86zM1045.26 252.19a10.78 10.78 0 002.94-8.3q-.45-4.33-4.67-8.2a13.94 13.94 0 00-8.43-3.94 8.49 8.49 0 00-7.29 2.74 7.06 7.06 0 00-1.58 6.53q.82 3.91 5.38 11.59l5.21 8.81q5.22 8.81 5.14 14.91t-5.42 11.93a21 21 0 01-17.94 7q-10.8-.78-20.62-9.78-11.36-10.38-12.57-20.26-1.18-9.62 7.28-18.86l.48-.52 11.43 10.46q-4.77 4.74-4.38 10.12t5.77 10.3a17.67 17.67 0 009.86 4.93 9.08 9.08 0 008.26-2.78 5.93 5.93 0 001.43-5.42q-.6-3.2-4.24-9.38l-5.22-8.8q-6.09-10.35-6.45-16.92t4.83-12.26a22.35 22.35 0 0117.63-7.69q10.4.22 19.45 8.51 10.18 9.31 11.52 18.75 1.26 8.72-5.2 15.77l-1.17 1.2zM142.86 400.14l69.28 32.14L191 478l-5.39-2.5-5.39-2.5 14.57-31.41-17.12-7.94L164 463.11l-5.39-2.5-5.39-2.5 13.68-29.48-19.9-9.2-15 32.31-5.38-2.49-5.39-2.5zM108.25 482.89l2.06-6.89 2.06-6.89L185.55 491l-3.14 10.52-3.14 10.48-63.13 10 55.21 16.48-2 6.89-2.06 6.89-73.23-21.82 3.09-10.37 3.1-10.36 63.9-10.14zM164.3 563.86l-1.12 8.5-1.12 8.49-61.46 12.9 56 28.4-1 7.73-1 7.73L82.63 599l1.09-8.27 1.09-8.28zM155.4 647.05l-.21 7.87-.2 7.88-76.35-2 .2-7.88.21-7.87zM154.45 681.57l.62 7.84 1.81 22.75q1.06 13.41-3.45 21t-14.11 8.33q-9.69.76-15.28-6.51a27.25 27.25 0 01-4.36-8.84 25.88 25.88 0 01-1.42 7.34c-1.55 3.86-4.74 6.25-9.6 7.18s-9.18 1.87-12.87 2.81l-1.11.31c-2.77.76-5 1.45-6.77 2.06a35 35 0 00-4.81 2.07l-.66-8.32-.66-8.31a25.69 25.69 0 014.08-1.33q2.6-.67 7.57-1.72l6.73-1.33q7.53-1.47 9.7-3.85t1.67-8.77l-1.06-13.39-30.91 2.46-.62-7.85-.62-7.85zm-32.15 18.35l.78 9.74q.66 8.45 3.81 12.71a8.85 8.85 0 008.32 3.86 9.22 9.22 0 007.71-4.58q2.47-4.18 1.89-11.54l-.95-11.9zM95.77 771q7.86-11 26.84-15.36t30.82 2.24q11.88 6.55 15.71 23.4t-4 27.91q-7.87 11-26.83 15.32t-30.83-2.21q-11.86-6.52-15.7-23.42T95.77 771zm17.73 38.07q8 3.34 21.33.33t19.08-9.52q5.81-6.5 3.65-16t-10.19-12.8q-8.06-3.36-21.32-.35T107 780.31q-5.79 6.53-3.64 16t10.14 12.77zM112.84 866.74l-2.65-6.69-2.64-6.68 71-28.09 4 10.21 4 10.21-43.41 46.92 53.58-21.2 2.65 6.69 2.64 6.68-71 28.09-4-10.06-4-10.06 44-47.48zM149.19 948.56l-3.74-6.14-3.73-6.14 65.28-39.7 6.78 11.14 6.81 11.18L177 964.07 237 946l6.78 11.14 6.81 11.19-65.21 39.67-3.74-6.14-3.73-6.14L238.24 959l-70.36 20.23-4.34-7.13-4.33-7.1 49.9-52.92zM202.58 1029.43L260.76 980l32.64 38.36-4.52 3.85-4.53 3.85-22.43-26.37-14.38 12.23 21.06 24.75-4.52 3.85-4.52 3.85-21.06-24.76-16.67 14.18 23.09 27.13-4.52 3.85-4.53 3.84zM261.83 1094.18l-5.37-4.78-5.37-4.77 50.75-57.08 8.21 7.3 8.2 7.3-17.62 61.44 38.29-43.06 5.38 4.78 5.37 4.77-50.76 57.08-8.08-7.19-8.08-7.19 17.84-62.19zM371.84 1099.88l-19.42-12.78 3.26-5 3.27-5 52 34.21-3.26 5-3.26 5-19.43-12.78-35.45 53.89-6.58-4.33-6.57-4.33zM434.22 1123l9 4.36 9.09 4.38-7.62 81.13-7.63-3.68-7.63-3.68 2.15-17-29.18-14.08-11.88 12.31-7.53-3.63-7.57-3.66zm-23 42.47l22 10.59 4.65-37.85zM464.81 1219.66l23.35-72.72 7.5 2.41 7.49 2.41-19.72 61.41 30.35 9.74-1.81 5.66-1.82 5.65zM579.69 1171.38l7.81.93 21.27 2.51q12.56 1.48 18.51 8.34t4.62 18.24q-1.36 11.53-9.22 16.63t-21.8 3.44l-11.09-1.31-3.42 28.92-7.82-.92-7.82-.93zm11.49 37l8.58 1q7.44.87 11.77-1.67a10.21 10.21 0 005-8.13q.68-5.64-2.46-9.1t-9.59-4.21l-10.54-1.27zM647.3 1178.27l7.86-.16 22.82-.45q13.46-.27 20.73 4.69t7.47 14.58q.2 9.72-7.4 14.87a27.35 27.35 0 01-9.08 3.82 25.67 25.67 0 017.24 1.86q5.64 2.65 6.6 10t2.05 13l.24 1.13q.88 4.21 1.65 6.87a34.66 34.66 0 001.78 4.93l-8.34.16-8.34.17a26.1 26.1 0 01-1.09-4.15q-.51-2.64-1.26-7.65l-.93-6.8q-1-7.62-3.27-9.92t-8.65-2.19l-13.43.27.62 31-7.88.15-7.87.16zm16.41 33.18l9.77-.2q8.47-.16 12.92-3a8.9 8.9 0 004.35-8.09 9.22 9.22 0 00-4.13-8q-4-2.72-11.4-2.57l-11.93.24zM740.17 1241.3q-10.65-8.38-14-27.55t3.72-30.68q7.11-11.53 24.12-14.56t27.69 5.37q10.62 8.4 14 27.54t-3.7 30.69q-7.1 11.54-24.15 14.55t-27.68-5.36zm38.88-15.89q3.74-7.86 1.35-21.28t-8.59-19.51q-6.21-6.12-15.77-4.42t-13.27 9.57q-3.76 7.88-1.38 21.28t8.61 19.52q6.24 6.09 15.75 4.4t13.3-9.56zM820.71 1166l-22.08 7.28-1.86-5.64-1.86-5.63 59.09-19.48 1.86 5.64 1.86 5.63-22.08 7.29 20.22 61.25-7.48 2.47-7.48 2.47zM900.39 1205.38l-33.57-68.59 45.24-22.15 2.61 5.33 2.61 5.34-31.1 15.22 8.3 17 29.19-14.29 2.61 5.34 2.61 5.33-29.19 14.29 9.62 19.64 32-15.66 2.61 5.34 2.61 5.33zM1002.51 1117q6.72 9.15 3.35 20.64t-15 19.23q-14 9.3-26.9 5.73t-23.65-19.78q-10.75-16.2-8.84-29.64t16.32-23q11.15-7.41 22.56-6 10.89 1.32 16.52 9.89l.63 1-12.91 8.57q-4.21-5.25-9.77-6t-11.32 3.07q-7.65 5.08-7.73 13.67t7.45 19.93q7.54 11.34 15.56 14.52t15.83-2q6-4 7.31-9.56t-2.29-11.63zM1003.17 1065l-17.45 15.36-3.92-4.45-3.92-4.46 46.72-41.14 3.92 4.46 3.92 4.46-17.44 15.34 42.62 48.41-5.91 5.2-5.91 5.21zM1032.35 1021.15l5.37-5.76 5.36-5.77 55.88 52.07-5.36 5.76-5.37 5.76zM1113.18 1032.77q-13.48 1.23-29.13-10.36t-18.39-24.84q-2.76-13.27 7.52-27.16t23.8-15.13q13.49-1.18 29.11 10.38t18.41 24.83q2.77 13.25-7.54 27.17t-23.78 15.11zm17.33-38.26q-2.7-8.28-13.65-16.4t-19.65-8.27q-8.7-.17-14.49 7.64t-3.07 16.07q2.68 8.3 13.63 16.4t19.67 8.26q8.71.15 14.47-7.62t3.09-16.08zM1176.77 953.83l-3.31 6.38-3.31 6.38-67.8-35.18 5.06-9.74 5.06-9.75 63.89 2-51.15-26.54 3.31-6.38 3.31-6.38 67.79 35.18-5 9.6-5 9.61L1125 927zM1155.16 807.4l2.54-9.71 2.55-9.76 81.07-8.17-2.14 8.19-2.14 8.2-17.11 1.18-8.19 31.34 14.37 9.29L1224 846l-2.12 8.14zm46.11 14.39l6.16-23.58-38 2.74zM1248.85 731.09q-2.28 19.6-13.5 28.64t-30.54 6.8q-18.13-2.12-27.61-13.52t-7.47-28.71q1.73-14.91 9.17-21.83t20.17-5.44l-1.79 15.39c-4.92-.49-8.62.33-11.13 2.46s-4.05 5.79-4.64 10.94q-1.23 10.59 5.3 17.18t19.79 8.13q13.53 1.56 21.25-3.54t9-16.47a54.16 54.16 0 00-.26-13.19L1219.9 716l-1.69 14.54-11.8-1.37 3.51-30.2 37.89 4.4a91.74 91.74 0 011.04 27.72zM1251.06 677.57l-76.35 1.87-1.24-50.36 5.94-.15 5.94-.14.84 34.61 18.87-.46-.79-32.49 5.93-.14 5.94-.15.79 32.49 21.87-.53-.87-35.62 5.94-.14 5.93-.15zM1245.35 587l1.21 7.09 1.2 7.08-75.29 12.83-1.84-10.82-1.84-10.83 52.15-36.95-56.8 9.68-1.21-7.08-1.21-7.09L1237 538l1.82 10.67 1.82 10.66-52.8 37.39zM1187.29 461.77q10.61-4 20.78 2.28t14.52 19.63q5.22 16-1.66 27.45t-25.37 17.5q-18.48 6-30.92.62t-17.81-21.87q-4.15-12.74.25-23.35 4.17-10.14 13.93-13.28l1.09-.35 4.81 14.73c-4.12 1.77-6.93 4.37-8.4 7.81s-1.5 7.35-.07 11.72q2.85 8.74 11.11 11.11t21.2-1.87q12.95-4.23 18.15-11.11t2.28-15.79c-1.48-4.56-3.91-7.76-7.26-9.6s-7.29-2.14-11.82-.9zM1167.48 429l-30.1 45.16-4.2-8.5-4.2-8.49 22.72-30.68-37.94-.23-3.67-7.44-3.68-7.43 54.14 3.46 26.34-13 3.49 7.06 3.49 7.06z" transform="translate(-7.42 -6.44)"/><circle class="cls-4" cx="1089.54" cy="332.96" r="22"/><circle class="cls-4" cx="215.54" cy="336.96" r="22"/></g></svg>
