<?xml version="1.0" standalone="no"?>
<!DOCTYPE svg PUBLIC "-//W3C//DTD SVG 20010904//EN"
 "http://www.w3.org/TR/2001/REC-SVG-20010904/DTD/svg10.dtd">
<svg version="1.0" xmlns="http://www.w3.org/2000/svg"
 width="500.000000pt" height="500.000000pt" viewBox="0 0 500.000000 500.000000"
 preserveAspectRatio="xMidYMid meet">
<metadata>
Created by potrace 1.11, written by Peter Selinger 2001-2013
</metadata>
<g transform="translate(0.000000,500.000000) scale(0.100000,-0.100000)"
fill="#000000" stroke="none">
<path d="M2345 3768 c-72 -17 -169 -50 -216 -74 -190 -95 -340 -267 -410 -471
-10 -29 -16 -53 -14 -53 3 0 0 -11 -5 -25 -5 -14 -12 -59 -16 -100 l-6 -75
357 0 358 1 -40 29 c-143 105 -107 336 63 399 183 67 361 -108 297 -294 -14
-42 -74 -115 -93 -115 -6 0 -10 -4 -10 -10 0 -6 124 -10 351 -10 l352 0 -7 73
c-21 242 -167 480 -375 611 -63 40 -158 81 -233 102 -72 19 -289 27 -353 12z"/>
<path d="M2071 2739 c-68 -55 -282 -58 -341 -4 -26 23 -25 10 2 -62 105 -279
356 -481 648 -522 61 -8 205 -7 260 4 203 36 400 164 525 339 34 48 99 185
110 231 6 29 6 29 -14 11 -58 -53 -267 -53 -336 -1 -30 22 -31 22 -54 4 -69
-56 -274 -57 -350 -1 -26 19 -27 19 -50 1 -69 -56 -275 -57 -350 -1 -26 19
-27 19 -50 1z"/>
<path d="M1254 2453 c3 -16 11 -59 17 -98 79 -494 332 -859 709 -1025 41 -18
78 -33 84 -34 6 -2 36 -10 66 -20 30 -9 69 -19 85 -22 17 -2 55 -8 85 -13 135
-22 443 -6 532 28 13 5 28 9 33 10 76 10 258 99 365 179 110 81 237 228 301
347 17 33 35 65 39 70 9 12 81 193 84 209 1 6 4 16 8 21 15 26 64 265 71 351
3 26 -38 23 -184 -15 -426 -110 -742 -335 -918 -654 -42 -75 -95 -224 -110
-307 -7 -36 -14 -74 -16 -85 -2 -11 -4 -31 -4 -44 -1 -36 -12 -19 -16 26 -7
76 -22 148 -47 223 -109 339 -375 606 -762 764 -75 31 -171 64 -206 71 -8 2
-44 10 -80 19 -36 8 -82 17 -103 20 -38 6 -39 6 -33 -21z"/>
</g>
</svg>
